<svg xmlns="http://www.w3.org/2000/svg" width="50.004" height="50.004" viewBox="0 0 50.004 50.004"><g transform="translate(-0.005 0.011)"><g transform="translate(0.005 -0.011)"><path d="M24.8,49.2A24.416,24.416,0,1,1,49.212,24.78,24.445,24.445,0,0,1,24.8,49.2Z" transform="translate(0.206 0.222)" fill="none"/><path d="M25.007,1.161a23.83,23.83,0,1,1-23.83,23.83,23.857,23.857,0,0,1,23.83-23.83m0-1.172a25,25,0,1,0,25,25,25,25,0,0,0-25-25Z" transform="translate(-0.005 0.011)" fill="#fff"/></g><path d="M33.638,31.858v-9.59c0-5.138-2.742-7.529-6.4-7.529a5.514,5.514,0,0,0-5.01,2.763V15.131h-5.56c.073,1.57,0,16.726,0,16.726h5.56V22.516a3.8,3.8,0,0,1,.183-1.355,3.042,3.042,0,0,1,2.852-2.033c2.013,0,2.817,1.533,2.817,3.782v8.949l5.558,0ZM10.809,12.848a2.9,2.9,0,1,0,.036-5.78,2.9,2.9,0,1,0-.07,5.779h.034Zm2.78,19.009V15.131H8.031V31.858Z" transform="translate(4.33 3.983)" fill="#fff"/></g></svg>