<svg xmlns="http://www.w3.org/2000/svg" width="50.004" height="50.004" viewBox="0 0 50.004 50.004"><g transform="translate(0 0.005)"><g transform="translate(0 -0.005)"><path d="M24.791,49.2A24.416,24.416,0,1,1,49.207,24.786,24.444,24.444,0,0,1,24.791,49.2Z" transform="translate(0.211 0.216)" fill="none"/><path d="M25,1.167A23.83,23.83,0,1,1,1.172,25,23.857,23.857,0,0,1,25,1.167M25-.005A25,25,0,1,0,50,25a25,25,0,0,0-25-25Z" transform="translate(0 0.005)" fill="#fff"/></g><g transform="translate(12.75 23.758)"><path d="M21.38,19.585a.565.565,0,0,0-.491.2,1.1,1.1,0,0,0-.147.652v.734h1.264v-.734a1.083,1.083,0,0,0-.152-.652A.544.544,0,0,0,21.38,19.585Z" transform="translate(-1.079 -12.736)" fill="#fff"/><path d="M18.211,19.568a.683.683,0,0,0-.3.07,1.074,1.074,0,0,0-.3.222v4.53a1.241,1.241,0,0,0,.339.256.8.8,0,0,0,.345.078.455.455,0,0,0,.384-.155.8.8,0,0,0,.125-.5V20.316a.883.883,0,0,0-.152-.558A.534.534,0,0,0,18.211,19.568Z" transform="translate(-2.84 -12.745)" fill="#fff"/><path d="M31.473,16.39C30.3,15.218,20.407,15.2,20.407,15.2s-9.891.014-11.068,1.186-1.18,6.972-1.18,7.005,0,5.832,1.18,7.007,11.068,1.2,11.068,1.2,9.893-.025,11.067-1.2,1.192-7.007,1.192-7.007C32.666,23.362,32.652,17.565,31.473,16.39ZM15.7,19.807H14.038V28.23H12.427V19.807H10.759V18.376H15.7v1.431Zm4.708,8.421H18.985v-.8a3.07,3.07,0,0,1-.827.673,1.723,1.723,0,0,1-.83.231.883.883,0,0,1-.747-.325,1.6,1.6,0,0,1-.25-.974V20.957H17.76v5.575a.634.634,0,0,0,.088.375.354.354,0,0,0,.294.116.788.788,0,0,0,.4-.155,1.985,1.985,0,0,0,.444-.389V20.957h1.427Zm5.186-1.5a1.833,1.833,0,0,1-.336,1.183,1.178,1.178,0,0,1-.972.411,1.656,1.656,0,0,1-.747-.158,1.832,1.832,0,0,1-.611-.492v.558H21.488V18.374h1.444v3.174a2.149,2.149,0,0,1,.613-.5,1.4,1.4,0,0,1,.659-.173,1.23,1.23,0,0,1,1.036.463,2.19,2.19,0,0,1,.358,1.359Zm4.957-1.956H27.822v1.367a1.624,1.624,0,0,0,.139.8.531.531,0,0,0,.484.22.588.588,0,0,0,.5-.188,1.563,1.563,0,0,0,.144-.83v-.331h1.47v.373a2.365,2.365,0,0,1-.538,1.686,2.108,2.108,0,0,1-1.6.563,1.953,1.953,0,0,1-1.513-.6,2.339,2.339,0,0,1-.553-1.649V22.917a2.071,2.071,0,0,1,.608-1.541,2.133,2.133,0,0,1,1.564-.6,1.992,1.992,0,0,1,1.51.552,2.2,2.2,0,0,1,.525,1.585V24.77Z" transform="translate(-8.159 -15.202)" fill="#fff"/></g><path d="M22.8,16.134H21.19V15.25a3.388,3.388,0,0,1-.925.744,1.984,1.984,0,0,1-.933.256,1,1,0,0,1-.841-.358,1.717,1.717,0,0,1-.283-1.074V8.126h1.606v6.14a.662.662,0,0,0,.1.411.388.388,0,0,0,.327.128.919.919,0,0,0,.448-.169,2.137,2.137,0,0,0,.5-.431V8.126H22.8v8.008Z" transform="translate(10.244 4.575)" fill="#fff"/><path d="M18.418,8.579A2.346,2.346,0,0,0,16.779,8a2.609,2.609,0,0,0-1.745.552,1.835,1.835,0,0,0-.65,1.483v4.15a2.146,2.146,0,0,0,.633,1.625,2.357,2.357,0,0,0,1.691.6,2.436,2.436,0,0,0,1.725-.584,2.1,2.1,0,0,0,.623-1.611V10.076A1.946,1.946,0,0,0,18.418,8.579Zm-1,5.755a.675.675,0,0,1-.192.506.725.725,0,0,1-.519.183.64.64,0,0,1-.491-.18.716.716,0,0,1-.173-.509V9.971a.542.542,0,0,1,.184-.425.7.7,0,0,1,.48-.161.785.785,0,0,1,.514.161.524.524,0,0,1,.2.425Z" transform="translate(8.092 4.502)" fill="#fff"/><path d="M12.235,6.3H10.41l2.156,6.554v4.3h1.813v-4.5L16.487,6.3H14.645l-1.119,4.338h-.114Z" transform="translate(5.857 3.55)" fill="#fff"/></g></svg>