<svg xmlns="http://www.w3.org/2000/svg" width="150" height="55.827" viewBox="0 0 150 55.827"><defs><style>.a{fill:#f7941d;}.a,.b{fill-rule:evenodd;}.b,.c{fill:#fff;}</style></defs><g transform="translate(-109.9 -95.987)"><path class="a" d="M167.174,112.781A7.2,7.2,0,0,0,160.4,108.1a7.36,7.36,0,0,0-6.774,4.677Zm-13.709,4.032a6.9,6.9,0,0,0,5.322,5.484,6.988,6.988,0,0,0,7.419-2.9l.161-.323,3.226,2.258-.161.323a10.94,10.94,0,0,1-14.193,3.387,11.053,11.053,0,0,1-5.161-13.709,11.1,11.1,0,0,1,21.45,5v.323H153.465Zm21.773-1.452A14.838,14.838,0,1,0,160.4,130.2,15.008,15.008,0,0,0,175.238,115.361ZM163.626,97.943a1.781,1.781,0,1,0-1.935,1.613C162.819,99.556,163.626,98.911,163.626,97.943Zm-7.741.968a1.781,1.781,0,1,0-1.935,1.613A1.7,1.7,0,0,0,155.884,98.911Zm-6.451,4.355a1.781,1.781,0,1,0-1.935,1.613A1.787,1.787,0,0,0,149.433,103.265Zm-4.032,6.774a1.781,1.781,0,1,0-3.548-.323,1.916,1.916,0,0,0,1.613,1.935A1.787,1.787,0,0,0,145.4,110.039Zm-.645,7.9a1.781,1.781,0,1,0-1.935,1.613A1.916,1.916,0,0,0,144.756,117.942ZM147.5,125.2a1.781,1.781,0,1,0-1.935,1.613A1.787,1.787,0,0,0,147.5,125.2Zm5.645,5.484a1.781,1.781,0,1,0-1.935,1.613A1.806,1.806,0,0,0,153.143,130.683Zm7.58,2.419a1.781,1.781,0,1,0-1.935,1.613A1.916,1.916,0,0,0,160.723,133.1Zm7.741-1.129a1.781,1.781,0,1,0-1.935,1.613A1.916,1.916,0,0,0,168.464,131.973Zm6.451-4.355a1.781,1.781,0,1,0-1.935,1.613C174.109,129.231,174.915,128.586,174.915,127.619Zm4.032-6.774a1.916,1.916,0,0,0-1.613-1.935,1.781,1.781,0,0,0-.323,3.548A1.7,1.7,0,0,0,178.947,120.845Zm.645-7.741a1.781,1.781,0,1,0-1.935,1.613C178.786,114.716,179.592,114.071,179.592,113.1Zm-2.742-7.419a1.781,1.781,0,1,0-1.935,1.613A1.806,1.806,0,0,0,176.851,105.685Zm-5.645-5.484a1.781,1.781,0,1,0-1.935,1.613A1.787,1.787,0,0,0,171.206,100.2Z" transform="translate(19.177 0)"/><path class="b" d="M209.749,115.609v-.645a6.011,6.011,0,0,0-2.419-4.032c-3.226-2.742-9.032-4.516-15.483-4.516h-4.355a8.6,8.6,0,0,0-3.064.645,2.308,2.308,0,0,0-1.29,1.613v16.451c0,1.129-1.451,2.258-3.709,2.9a14.462,14.462,0,0,1-7.419,0c-2.258-.645-3.709-1.774-3.709-2.9V108.512c0-1.774,1.613-3.387,4.677-4.677a28.644,28.644,0,0,1,11.128-1.935h13.548c9.516,0,18.225,2.58,22.9,6.612,2.1,1.935,3.387,4.032,3.548,6.129h0v1.129c0,3.548-2.258,6.774-6.29,9.193s-9.677,3.709-15.483,3.548H191.2a11.13,11.13,0,0,1-5.161-1.129c-1.129-.645-1.129-1.452,0-2.258A11.13,11.13,0,0,1,191.2,124h.323c6.29,0,12.257-1.774,15.483-4.516,1.935-1.129,2.742-2.58,2.742-3.871" transform="translate(35.797 3.625)"/><path class="b" d="M124.738,116.269V104.818c0-1.129-1.452-2.1-3.709-2.58a19.141,19.141,0,0,0-7.419,0c-2.258.484-3.709,1.452-3.709,2.58v10.967c0,3.548,2.258,6.935,6.29,9.193,4.032,2.419,9.677,3.709,15.483,3.548h22.418a6.5,6.5,0,0,0,3.871-1.129c.806-.645.806-1.452,0-2.258a6.5,6.5,0,0,0-3.871-1.129H138.93a22.69,22.69,0,0,1-9.838-2.58c-2.742-1.29-4.193-3.226-4.355-5.161" transform="translate(0 3.609)"/><path class="c" d="M110.6,124.6h1.452v6.129h1.935v1.29H110.6Z" transform="translate(0.429 17.538)"/><path class="c" d="M115.268,124.4a1.223,1.223,0,0,1,.645.323.915.915,0,1,1-1.613.645,1.14,1.14,0,0,1,.968-.968m-.645,2.258h1.452v5.483h-1.452Z" transform="translate(2.696 17.415)"/><path class="c" d="M121.555,125.8h1.29v4.677a3.659,3.659,0,0,1-.484,2.1,2.706,2.706,0,0,1-2.258.968,3.143,3.143,0,0,1-1.29-.161,3.374,3.374,0,0,1-.968-.645,1.394,1.394,0,0,1-.484-.968h1.452c.161.161.323.323.484.323a6.985,6.985,0,0,0,.806.161,2.046,2.046,0,0,0,.968-.161l.484-.484c.161-.161.161-.484.161-.968-.323.161-.484.484-.806.484a1.746,1.746,0,0,1-.968.161,2.976,2.976,0,0,1-1.935-.806,2.671,2.671,0,0,1-.806-1.935,3.066,3.066,0,0,1,.806-2.1,2.425,2.425,0,0,1,1.774-.645,2.046,2.046,0,0,1,.968.161,2.831,2.831,0,0,1,.806.645Zm-1.452,1.129a1.654,1.654,0,1,0,1.129.484A1.464,1.464,0,0,0,120.1,126.929Z" transform="translate(4.473 18.273)"/><path class="c" d="M122.9,124.5h1.29v2.742c.323-.161.484-.484.806-.484a1.454,1.454,0,0,1,.806-.161,2.6,2.6,0,0,1,1.452.484,1.971,1.971,0,0,1,.484,1.452v3.548h-1.29v-2.419c0-.645,0-1.129-.161-1.29,0-.161-.161-.323-.323-.484a.592.592,0,0,0-.484-.161.838.838,0,0,0-.645.323,3.526,3.526,0,0,0-.484.806v3.387h-1.29V124.5Z" transform="translate(7.966 17.476)"/><path class="c" d="M128.345,124.6h1.29v1.935h.968v1.29h-.968v4.193h-1.29v-4.193H127.7v-1.29h.645Z" transform="translate(10.91 17.538)"/><path class="c" d="M134.4,124.6h4.032v1.452H135.69v1.29h2.742v1.29H135.69v2.1h2.742v1.29H134.4Z" transform="translate(15.016 17.538)"/><path class="c" d="M139.023,125.861h1.451v.645a1.61,1.61,0,0,1,.806-.645,2.046,2.046,0,0,1,.968-.161,2.293,2.293,0,0,1,.968.323,1.61,1.61,0,0,1,.645.806,1.944,1.944,0,0,1,.806-.806,2.292,2.292,0,0,1,.968-.323,1.729,1.729,0,0,1,.968.323c.323.161.484.484.645.645a3.58,3.58,0,0,1,.161,1.452v3.226h-1.451V128.6a2.773,2.773,0,0,0-.161-1.29.838.838,0,0,0-.645-.323.97.97,0,0,0-.645.161l-.484.484c-.161.161-.161.645-.161,1.129v2.419h-1.452V128.6a2.391,2.391,0,0,0-.161-1.129c0-.161-.161-.323-.323-.484a.593.593,0,0,0-.484-.161.97.97,0,0,0-.645.161,2.226,2.226,0,0,0-.484.645,2.391,2.391,0,0,0-.161,1.129v2.419H138.7v-5.322Z" transform="translate(17.652 18.212)"/><path class="c" d="M146.868,124.4a1.223,1.223,0,0,1,.645.323.915.915,0,1,1-1.613.645,1.223,1.223,0,0,1,.323-.645.838.838,0,0,1,.645-.323m-.806,2.258h1.452v5.483h-1.452Z" transform="translate(22.065 17.415)"/><path class="c" d="M149.406,124.6h1.29v1.935h.806v1.29H150.7v4.193h-1.29v-4.193H148.6v-1.29h.806Z" transform="translate(23.719 17.538)"/><path class="c" d="M152.445,124.6H153.9v1.935h.806v1.29H153.9v4.193h-1.452v-4.193H151.8v-1.29h.645Z" transform="translate(25.681 17.538)"/><path class="c" d="M156.068,124.4a1.223,1.223,0,0,1,.645.323.915.915,0,1,1-1.613.645,1.223,1.223,0,0,1,.323-.645.838.838,0,0,1,.645-.323m-.806,2.258h1.452v5.483h-1.452Z" transform="translate(27.703 17.415)"/><path class="c" d="M158.1,125.861h1.452v.484a1.474,1.474,0,0,1,.806-.484,1.454,1.454,0,0,1,.806-.161,1.932,1.932,0,0,1,1.935,2.1v3.548h-1.29v-2.419c0-.645,0-1.129-.161-1.29,0-.161-.161-.323-.323-.484a.592.592,0,0,0-.484-.161.838.838,0,0,0-.645.323,3.526,3.526,0,0,0-.484.806v3.387h-1.451v-5.645Z" transform="translate(29.542 18.212)"/><path class="c" d="M167.455,125.8h1.29v4.677a3.66,3.66,0,0,1-.484,2.1,2.706,2.706,0,0,1-2.258.968,3.143,3.143,0,0,1-1.29-.161,3.373,3.373,0,0,1-.968-.645,1.394,1.394,0,0,1-.484-.968h1.451c.161.161.323.323.484.323a6.985,6.985,0,0,0,.806.161,2.046,2.046,0,0,0,.968-.161l.484-.484c.161-.161.161-.484.161-.968-.323.161-.484.484-.806.484a2.046,2.046,0,0,1-.968.161,2.976,2.976,0,0,1-1.935-.806,2.671,2.671,0,0,1-.806-1.935,3.066,3.066,0,0,1,.806-2.1,2.425,2.425,0,0,1,1.774-.645,2.046,2.046,0,0,1,.968.161,2.832,2.832,0,0,1,.806.645V125.8ZM166,126.929a1.654,1.654,0,1,0,1.129.484A1.464,1.464,0,0,0,166,126.929Z" transform="translate(32.607 18.273)"/><path class="c" d="M172.023,124.6h1.613a7.858,7.858,0,0,1,2.419.323,3.3,3.3,0,0,1,1.29,1.29,4.465,4.465,0,0,1,.484,2.1,4.772,4.772,0,0,1-.323,1.613,2.893,2.893,0,0,1-.806,1.129,2.6,2.6,0,0,1-1.129.645,6.7,6.7,0,0,1-2.1.161H171.7V124.6Zm1.452,1.452v4.677h.645a3.579,3.579,0,0,0,1.452-.161,1.135,1.135,0,0,0,.645-.806,3.038,3.038,0,0,0,.323-1.29,2.01,2.01,0,0,0-.645-1.774,2.727,2.727,0,0,0-1.935-.645h-.484Z" transform="translate(37.878 17.538)"/><path class="c" d="M183.145,129.026H178.79a1.394,1.394,0,0,0,.484.968,2.331,2.331,0,0,0,1.129.323,1.831,1.831,0,0,0,1.29-.484l1.129.484a5.476,5.476,0,0,1-.968.968,3.852,3.852,0,0,1-1.452.323,2.765,2.765,0,0,1-2.9-2.9,3.4,3.4,0,0,1,.806-2.1,3.129,3.129,0,0,1,4.193,0,3.19,3.19,0,0,1,.806,2.258Zm-1.451-1.129c-.161-.323-.323-.484-.484-.806a1.613,1.613,0,0,0-1.935,0,2.227,2.227,0,0,0-.484.645h2.9Z" transform="translate(41.433 18.273)"/><path class="c" d="M186.348,126.545l-.806.806a1.394,1.394,0,0,0-.968-.484c-.161,0-.323,0-.323.161-.161,0-.161.161-.161.323a.158.158,0,0,0,.161.161,2,2,0,0,0,.484.323l.484.323c.484.323.968.484,1.129.806a2.292,2.292,0,0,1,.323.968,1.831,1.831,0,0,1-.484,1.29,1.971,1.971,0,0,1-1.451.484,2.3,2.3,0,0,1-1.935-.968l.806-.968.484.484a.97.97,0,0,0,.645.161.592.592,0,0,0,.484-.161c.161-.161.161-.161.161-.323s-.161-.484-.645-.645l-.484-.161c-.806-.484-1.29-.968-1.29-1.613a1.464,1.464,0,0,1,.484-1.129,1.831,1.831,0,0,1,1.29-.484,2.046,2.046,0,0,1,.968.161.864.864,0,0,1,.645.484" transform="translate(44.681 18.334)"/><path class="c" d="M187.768,124.4a1.223,1.223,0,0,1,.645.323.971.971,0,0,1-.645,1.613,1.222,1.222,0,0,1-.645-.323.838.838,0,0,1-.323-.645,1.223,1.223,0,0,1,.323-.645.838.838,0,0,1,.645-.323m-.806,2.258h1.451v5.483h-1.451Z" transform="translate(47.134 17.415)"/><path class="c" d="M194.055,125.8h1.29v4.677a3.659,3.659,0,0,1-.484,2.1,2.706,2.706,0,0,1-2.258.968,3.143,3.143,0,0,1-1.29-.161,3.374,3.374,0,0,1-.968-.645,1.394,1.394,0,0,1-.484-.968h1.451c.161.161.323.323.484.323a6.988,6.988,0,0,0,.806.161,2.046,2.046,0,0,0,.968-.161l.484-.484c.161-.161.161-.484.161-.968-.323.161-.484.484-.806.484a2.046,2.046,0,0,1-.968.161,2.976,2.976,0,0,1-1.935-.806,2.671,2.671,0,0,1-.806-1.935,3.066,3.066,0,0,1,.806-2.1,2.425,2.425,0,0,1,1.774-.645,2.045,2.045,0,0,1,.968.161,2.832,2.832,0,0,1,.806.645V125.8Zm-1.452,1.129a1.654,1.654,0,1,0,1.129.484A1.742,1.742,0,0,0,192.6,126.929Z" transform="translate(48.911 18.273)"/><path class="c" d="M195.3,125.861h1.452v.484a1.474,1.474,0,0,1,.806-.484,1.454,1.454,0,0,1,.806-.161,1.932,1.932,0,0,1,1.935,2.1v3.548h-1.29v-2.419c0-.645,0-1.129-.161-1.29,0-.161-.161-.323-.323-.484a.592.592,0,0,0-.484-.161.838.838,0,0,0-.645.323,3.526,3.526,0,0,0-.484.806v3.387h-1.451v-5.645Z" transform="translate(52.343 18.212)"/><path class="c" d="M203.848,126.545l-.806.806a1.394,1.394,0,0,0-.968-.484c-.161,0-.323,0-.323.161-.161,0-.161.161-.161.323a.158.158,0,0,0,.161.161,2,2,0,0,0,.484.323l.484.323c.484.323.968.484,1.129.806a2.292,2.292,0,0,1,.323.968,1.831,1.831,0,0,1-.484,1.29,1.971,1.971,0,0,1-1.452.484,2.3,2.3,0,0,1-1.935-.968l.806-.968a2.227,2.227,0,0,0,.645.484.97.97,0,0,0,.645.161.593.593,0,0,0,.484-.161c.161-.161.161-.161.161-.323s-.161-.484-.645-.645l-.484-.161c-.968-.484-1.29-.968-1.29-1.613a1.464,1.464,0,0,1,.484-1.129,1.831,1.831,0,0,1,1.29-.484,2.046,2.046,0,0,1,.968.161,1.2,1.2,0,0,1,.484.484" transform="translate(55.407 18.334)"/></g></svg>