<svg xmlns="http://www.w3.org/2000/svg" width="50.004" height="50.004" viewBox="0 0 50.004 50.004"><path d="M24.791,49.207A24.416,24.416,0,1,1,49.207,24.791,24.444,24.444,0,0,1,24.791,49.207Z" transform="translate(0.211 0.211)" fill="none"/><path d="M25,1.172A23.83,23.83,0,1,1,1.172,25,23.857,23.857,0,0,1,25,1.172M25,0A25,25,0,1,0,50,25,25,25,0,0,0,25,0Z" fill="#fff"/><path d="M14.724,34.921h5.749V21.008h3.835l.508-4.794H20.473l.006-2.4c0-1.25.119-1.92,1.913-1.92h2.4V7.1H20.953c-4.608,0-6.229,2.327-6.229,6.238v2.878H11.852v4.8h2.872V34.921Z" transform="translate(6.668 3.993)" fill="#fff"/></svg>