<svg xmlns="http://www.w3.org/2000/svg" width="30.516" height="30.638" viewBox="0 0 30.516 30.638"><defs><style>.a,.b{fill:none;}.b{stroke:#fff;stroke-miterlimit:10;stroke-width:1.5px;}</style></defs><g transform="translate(0.206 0.328)"><rect class="a" width="30" height="30" transform="translate(0.132 0.132)"/><path class="b" d="M18.661,21.705s2.448-1.4,3.088-1.738a1.837,1.837,0,0,1,1.7-.178c.609.372,5.72,3.773,6.151,4.074a1.457,1.457,0,0,1,.046,2.007c-.589.844-3.308,4.181-4.461,4.145s-5.952-.143-15-9.192S1.037,6.977,1,5.823,4.3,1.95,5.144,1.36a1.476,1.476,0,0,1,2.008.047c.341.472,3.7,5.567,4.072,6.151a1.817,1.817,0,0,1-.178,1.7c-.336.641-1.737,3.088-1.737,3.088a30.016,30.016,0,0,0,4.328,5.025A30.158,30.158,0,0,0,18.661,21.705Z" transform="translate(-0.455 -0.455)"/></g></svg>