<svg xmlns="http://www.w3.org/2000/svg" width="50.004" height="50.004" viewBox="0 0 50.004 50.004"><path d="M24.791,49.207A24.416,24.416,0,1,1,49.207,24.791,24.444,24.444,0,0,1,24.791,49.207Z" transform="translate(0.211 0.211)" fill="none"/><path d="M25,1.172A23.83,23.83,0,1,1,1.172,25,23.857,23.857,0,0,1,25,1.172M25,0A25,25,0,1,0,50,25,25,25,0,0,0,25,0Z" fill="#fff"/><path d="M24.432,8.983a5.756,5.756,0,0,0-3.877,5.788l.059.984-.994-.12a16.166,16.166,0,0,1-9.463-4.663L8.845,9.666l-.336.964A5.81,5.81,0,0,0,9.742,16.58c.8.844.616.964-.755.463a2.319,2.319,0,0,0-.934-.22,7.213,7.213,0,0,0,.716,2.694,6.428,6.428,0,0,0,2.724,2.574l.975.463-1.155.017c-1.113,0-1.153.02-1.033.444A6.011,6.011,0,0,0,14,26.311l1.233.422-1.074.644a11.129,11.129,0,0,1-5.329,1.486,5.863,5.863,0,0,0-1.631.161,15.236,15.236,0,0,0,3.836,1.769A16.777,16.777,0,0,0,24.074,29.3a17.47,17.47,0,0,0,6.621-7.8,20.72,20.72,0,0,0,1.352-6.029c0-.925.059-1.045,1.172-2.15a13.37,13.37,0,0,0,1.392-1.547c.2-.383.178-.383-.834-.041-1.689.6-1.928.523-1.092-.381a5.868,5.868,0,0,0,1.352-2.15c0-.059-.3.041-.636.22a10.905,10.905,0,0,1-1.75.683l-1.074.342L29.6,9.786A8.11,8.11,0,0,0,27.913,8.9,6.789,6.789,0,0,0,24.432,8.983Z" transform="translate(4.049 4.903)" fill="#fff"/></svg>